<svg width="52" height="52" viewBox="0 0 52 52" fill="none" xmlns="http://www.w3.org/2000/svg">
<path d="M26 51C39.8071 51 51 39.8071 51 26C51 12.1929 39.8071 1 26 1C12.1929 1 1 12.1929 1 26C1 39.8071 12.1929 51 26 51Z" fill="black" fill-opacity="0.2"/>
<path d="M23.285 34.699C23.4552 34.8731 23.6831 34.9792 23.926 34.9972C24.1688 35.0153 24.4099 34.9441 24.604 34.797L24.699 34.715L32.699 26.898C32.8712 26.7298 32.9769 26.5051 32.9967 26.2652C33.0166 26.0253 32.9492 25.7862 32.807 25.592L32.727 25.496L25.004 17.314C24.8295 17.1289 24.591 17.0173 24.337 17.0019C24.0831 16.9865 23.8328 17.0684 23.6372 17.231C23.4415 17.3937 23.3152 17.6247 23.284 17.8772C23.2527 18.1297 23.3189 18.3846 23.469 18.59L23.549 18.686L30.598 26.155L23.301 33.285C23.1269 33.4552 23.0208 33.6831 23.0028 33.926C22.9847 34.1688 23.0559 34.4099 23.203 34.604L23.285 34.699Z" fill="white"/>
</svg>
